# xmcd
#
# Track frame offsets: 
#        150
#        19080
#        42731
#        59405
#        82597
#        83294
#        105026
#        112944
#        136893
#        138256
#        160796
#        178259
#
# Disc length: 2907 seconds
#
# Revision: 0
# Processed by: cddbd v1.5.2PL0 Copyright (c) Steve Scherf et al.
# Submitted via: ExactAudioCopyFreeDBPlugin 1.0
#
DISCID=850b590c
DTITLE=Cornershop - England Is A Garden
DYEAR=1900
DGENRE=
TTITLE0=St Marie Under Canon
TTITLE1=Slingshot
TTITLE2=No Rock: Save In Roll
TTITLE3=Everywhere That Wog Army Roam
TTITLE4=King Kongs
TTITLE5=Highly Amplified
TTITLE6=England Is A Garden
TTITLE7=The Cash Money
TTITLE8=Morning Ben
TTITLE9=I'm A Wooden Soldier
TTITLE10=One Uncareful Lady Owner
TTITLE11=The Holy Name
EXTD=
EXTT0=
EXTT1=
EXTT2=
EXTT3=
EXTT4=
EXTT5=
EXTT6=
EXTT7=
EXTT8=
EXTT9=
EXTT10=
EXTT11=
PLAYORDER=
